<?xml version="1.0" encoding="utf-8"?>
<!-- Generator: Adobe Illustrator 21.1.0, SVG Export Plug-In . SVG Version: 6.00 Build 0)  -->
<svg version="1.1" id="Layer_1" xmlns="http://www.w3.org/2000/svg" xmlns:xlink="http://www.w3.org/1999/xlink" x="0px" y="0px"
	 viewBox="0 0 235.4 34.1" style="enable-background:new 0 0 235.4 34.1;" xml:space="preserve">
<style type="text/css">
	.st0{fill:#FDD000;}
	.st1{fill:#FFFFFF;}
</style>
<polygon class="st0" points="90.2,22.5 86,13.8 90.3,5.2 94.6,13.9 "/>
<path class="st1" d="M98.9,8.9V18c0,4.7-3.8,8.5-8.5,8.5c-4.7,0-8.5-3.8-8.5-8.5V8.8c-0.1-4.1-3.5-7.4-7.6-7.4V18
	c0,8.9,7.2,16.1,16.1,16.1c8.9,0,16.1-7.2,16.1-16.1V1.4C102.4,1.4,99,4.7,98.9,8.9z"/>
<path class="st1" d="M70,18.6c-1.2-2.6-3.8-4.4-6.8-4.5H50.2c0,4.2,3.3,7.5,7.5,7.6h3.2c1,0.1,1.8,1,1.8,2c0,1.1-0.9,2-2,2l-7.6,0
	c-4.7,0-8.5-3.8-8.5-8.5s3.8-8.5,8.5-8.5h8c4.1-0.1,7.4-3.5,7.4-7.6H53c-8.9,0-16.1,7.2-16.1,16.1S44.1,33.4,53,33.4h7.7
	c5.7,0,10.4-4.6,10.4-10.4C71,21.5,70.7,20,70,18.6z"/>
<path class="st1" d="M33.1,18.6c-1.2-2.6-3.8-4.4-6.8-4.5H13.3c0,4.2,3.3,7.5,7.5,7.6h3.2c1,0.1,1.8,1,1.8,2c0,1.1-0.9,2-2,2l-7.6,0
	c-4.7,0-8.5-3.8-8.5-8.5s3.8-8.5,8.5-8.5h8c4.1-0.1,7.4-3.5,7.4-7.6H16.1C7.2,1.2,0,8.4,0,17.3s7.2,16.1,16.1,16.1h7.7
	c5.7,0,10.4-4.6,10.4-10.4C34.1,21.5,33.8,20,33.1,18.6z"/>
<path class="st1" d="M149.1,7.4c-1.5,1.1-3.3,2.1-6.5,2.4v2.7c3.5-0.3,5.9-1.6,7.6-2.6c2.6-1.6,4.1-4.2,4.1-7.5V1.1h-11.9
	c0,1.4,1.1,2.5,2.5,2.5h6.3C151.1,5,150.4,6.5,149.1,7.4z M157,19.3c-0.8,0.7-1.8,1-3,1c-1.1,0-2.1-0.3-3-1
	c-0.9-0.7-1.3-1.6-1.3-2.6c0-1,0.4-1.8,1.3-2.5c0.9-0.7,1.8-1,3-1c1.1,0,2.1,0.3,3,1c0.9,0.7,1.3,1.5,1.3,2.5
	C158.3,17.7,157.9,18.6,157,19.3 M159.1,12.2c-1.4-1.1-3.2-1.6-5.1-1.6c-2,0-3.7,0.5-5.1,1.6c-1.5,1.2-2.3,2.7-2.3,4.5
	c0,1.8,0.8,3.3,2.3,4.5c1.4,1.1,3.1,1.7,5.1,1.7c2,0,3.7-0.6,5.1-1.7c1.6-1.2,2.4-2.7,2.4-4.5C161.5,14.9,160.7,13.4,159.1,12.2
	 M161.8,4.6V1.1H159v9.6h2.9V7.1h2.9V4.6H161.8"/>
<path class="st1" d="M194.4,15.5h13.2v6.4h2.9v-8.9l-18.6,0C191.8,14.3,193,15.5,194.4,15.5z M195.4,5.2c0.6-0.5,1.2-0.7,1.9-0.7
	c0.7,0,1.4,0.2,1.9,0.7c0.6,0.5,0.9,1.1,0.9,1.8c0,0.7-0.3,1.3-0.9,1.8c-0.6,0.5-1.2,0.8-1.9,0.8c-0.7,0-1.4-0.3-1.9-0.8
	c-0.6-0.5-0.8-1.1-0.8-1.8C194.6,6.3,194.8,5.7,195.4,5.2 M191.7,6.9c0,1.5,0.6,2.7,1.7,3.7c1.1,0.9,2.4,1.4,3.9,1.4
	c1.5,0,2.8-0.5,3.8-1.4c1.1-1,1.7-2.2,1.7-3.7c0-0.5-0.1-0.9-0.3-1.3c-0.2-0.4-0.4-0.8-0.7-1.1h1.6V2H199V0h-3.1v2h-5.3
	c0,1.1,0.7,2.1,1.7,2.4l0.2,0l0.2,0c-0.3,0.3-0.6,0.7-0.7,1.1C191.8,6,191.7,6.4,191.7,6.9 M210.4,4.5V1.1h-2.9v9.9h2.9V7h2.9V4.5
	H210.4"/>
<path class="st1" d="M122.2,15.5h13.3v3.9H123c-0.4,0-0.8-0.3-0.8-0.8L122.2,15.5z M119.4,19.3c0,1.4,1.1,2.5,2.5,2.5l16.4,0v-8.8
	h-18.9L119.4,19.3 M138.3,8.3V1.2H119c0,1.4,1.1,2.5,2.5,2.5h13.9v4.5l-17.7,0c0,1.4,1.1,2.5,2.5,2.5l19.1,0V8.3H138.3"/>
<path class="st1" d="M231.1,18c2.6-4.4,2.6-10.2,2.6-11.7l0-4h-17.8c0,1.4,1.1,2.5,2.5,2.5h12.4l0,1.6c0,4.9-1.6,11.4-3.9,11.7V9.3
	h-2.8V18h-3.2V9.3H218V18h-3.7c0,1.4,1.1,2.5,2.5,2.5h18.5V18L231.1,18z"/>
<path class="st1" d="M184.7,1.1v6.6h-2.3V1.1h-2.6v11.5l-7.8,0c-0.4,0-0.8-0.4-0.8-0.8V3.6h6.3V1.1l-10.9,0c0,1.1,0.7,2.1,1.8,2.4
	l0,9.4c0,1.4,1.1,2.6,2.6,2.6l8.9,0v6.4h2.6V10.3h2.3v11.6h2.7V1.1H184.7z"/>
<path class="st1" d="M118.5,29.7c0-2.3,1.7-4.2,3.7-4.2c1.6,0,3.1,1.2,3.6,3h-1c-0.5-1.2-1.4-1.9-2.6-1.9c-1.5,0-2.8,1.4-2.8,3.1
	c0,1.7,1.3,3.1,2.8,3.1c1.3,0,2.3-1,2.7-2.2h-3.1v-1h4.2c0,2.5-1.7,4.3-3.8,4.3C120.2,33.9,118.5,32,118.5,29.7z"/>
<polygon class="st1" points="126.8,25.8 131.8,25.8 131.8,26.8 127.9,26.8 127.9,29.1 131.7,29.1 131.7,30.1 127.9,30.1 127.9,32.7 
	131.8,32.7 131.8,33.7 126.8,33.7 "/>
<path class="st1" d="M132.8,31v-5.2h1.1v5.4c0,0.9,0.7,1.8,1.6,1.8c0.9,0,1.6-0.8,1.6-1.8v-5.4h1.1V31c0,1.5-1.1,3-2.6,3
	C133.9,33.9,132.8,32.5,132.8,31z"/>
<polygon class="st1" points="140.3,33.7 139.2,33.7 139.2,25.8 140.7,25.8 142.9,31.9 145.1,25.8 146.5,25.8 146.5,33.7 145.5,33.7 
	145.5,27.7 143.3,33.7 142.4,33.7 140.3,27.7 "/>
<path class="st1" d="M147.4,29.7c0-2.3,1.7-4.2,3.7-4.2c1.6,0,3.1,1.2,3.6,3h-1c-0.5-1.2-1.4-1.9-2.6-1.9c-1.5,0-2.8,1.4-2.8,3.1
	c0,1.7,1.3,3.1,2.8,3.1c1.3,0,2.3-1,2.7-2.2h-3.1v-1h4.2c0,2.5-1.7,4.3-3.8,4.3C149,33.9,147.4,32,147.4,29.7z"/>
<path class="st1" d="M160.5,33.7h1.1l-3.1-7.9h-1l-3.1,7.9h1.1l0.8-2.1h3.3L160.5,33.7z M158.1,27.3l1.3,3.3h-2.6L158.1,27.3"/>
<polygon class="st1" points="163.3,27.6 163.3,33.7 162.2,33.7 162.2,25.8 163.4,25.8 166.8,31.9 166.8,25.8 167.9,25.8 167.9,33.7 
	166.7,33.7 "/>
<path class="st1" d="M168.8,29.7c0-2.3,1.7-4.2,3.7-4.2c1.6,0,3.1,1.2,3.6,3h-1c-0.5-1.2-1.4-1.9-2.6-1.9c-1.5,0-2.8,1.4-2.8,3.1
	c0,1.7,1.3,3.1,2.8,3.1c1.3,0,2.3-1,2.7-2.2h-3.1v-1h4.2c0,2.5-1.7,4.3-3.8,4.3C170.4,33.9,168.8,32,168.8,29.7z"/>
<path class="st1" d="M181,31v-5.2h1.1v5.4c0,0.9,0.7,1.8,1.6,1.8c0.9,0,1.6-0.8,1.6-1.8v-5.4h1.1V31c0,1.5-1.1,3-2.6,3
	C182.1,33.9,181,32.5,181,31z"/>
<polygon class="st1" points="188.3,27.6 188.3,33.7 187.2,33.7 187.2,25.8 188.4,25.8 191.8,31.9 191.8,25.8 192.9,25.8 192.9,33.7 
	191.7,33.7 "/>
<rect x="194" y="25.8" class="st1" width="0.9" height="7.9"/>
<polygon class="st1" points="198.5,33.7 195.6,25.8 196.7,25.8 199.1,32 201.4,25.8 202.5,25.8 199.6,33.7 "/>
<polygon class="st1" points="203.2,25.8 208.1,25.8 208.1,26.8 204.2,26.8 204.2,29.1 208,29.1 208,30.1 204.2,30.1 204.2,32.7 
	208.2,32.7 208.2,33.7 203.2,33.7 "/>
<path class="st1" d="M214.7,33.7h-1.2c-0.1-0.1-2.6-3.6-2.9-4h1.6c0.7,0,1.3-0.6,1.3-1.4c0-0.8-0.6-1.5-1.3-1.5h-2v6.9h-1.1v-7.9
	h3.2c1.2,0,2.2,1.1,2.2,2.5c0,1.3-0.9,2.3-2.1,2.4L214.7,33.7z"/>
<path class="st1" d="M215.2,31.2h1.1c0,1,0.9,1.7,1.7,1.7c0.9,0,1.6-0.4,1.6-1.4c0-1.9-4.2-1-4.2-3.7c0-1.5,1.3-2.3,2.6-2.3
	c1.2,0,2.4,1,2.6,2.4h-1.1c-0.1-0.8-0.8-1.4-1.5-1.4c-0.8,0-1.5,0.4-1.5,1.3c0,1.6,4.2,0.9,4.2,3.7c0,1.6-1.4,2.4-2.7,2.4
	C216.5,33.9,215.2,32.7,215.2,31.2z"/>
<rect x="221.6" y="25.8" class="st1" width="0.9" height="7.9"/>
<polygon class="st1" points="226.4,33.7 225.3,33.7 225.3,26.8 223.3,26.8 223.3,25.8 228.3,25.8 228.3,26.8 226.4,26.8 "/>
<polygon class="st1" points="232.5,33.7 231.5,33.7 231.5,30.9 228.9,25.8 230.2,25.8 232,29.4 233.8,25.8 235.1,25.8 232.5,30.9 
	"/>
</svg>
